# xmcd
#
# Track frame offsets:
#	150
#	27408
#	43513
#	60848
#	84098
#	115893
#	151761
#	170140
#
# Disc length: 2742 seconds
#
# Revision: 0
# Processed by: cddbd v1.5.1PL0 Copyright (c) Steve Scherf et al.
# Submitted via: dBpowerAMP V4.0
#
DISCID=540ab408
DTITLE=basman - arabic
DYEAR=2004
DGENRE=Christian Rap
TTITLE0=ba
TTITLE1=hhc
TTITLE2=n n
TTITLE3=hjvv
TTITLE4=bui
TTITLE5=jvbui
TTITLE6=iki
TTITLE7=ohgio
EXTD=
EXTT0=
EXTT1=
EXTT2=
EXTT3=
EXTT4=
EXTT5=
EXTT6=
EXTT7=
PLAYORDER=
